<svg xmlns="http://www.w3.org/2000/svg" width="512" height="512" viewBox="0 0 512 512">
  <defs>
    <linearGradient id="bg5" x1="0" y1="0" x2="1" y2="1">
      <stop offset="0%" stop-color="#1a1a2e"/>
      <stop offset="100%" stop-color="#0f0f11"/>
    </linearGradient>
    <linearGradient id="feather5" x1="0" y1="0" x2="1" y2="1">
      <stop offset="0%" stop-color="#a855f7"/>
      <stop offset="100%" stop-color="#7c3aed"/>
    </linearGradient>
    <linearGradient id="body5" x1="0" y1="0" x2="0" y2="1">
      <stop offset="0%" stop-color="#ef4444"/>
      <stop offset="100%" stop-color="#dc2626"/>
    </linearGradient>
  </defs>
  <rect width="512" height="512" rx="112" fill="url(#bg5)"/>
  <path d="M149 347 C149 213, 203 133, 283 107 C320 96, 363 112, 379 149 C395 187, 384 240, 352 277 C336 299, 309 315, 283 320 Z" fill="url(#feather5)" opacity="0.3"/>
  <path d="M165 336 C165 224, 213 149, 283 123 C315 112, 352 125, 365 155 C379 187, 371 229, 341 261 C325 283, 301 299, 277 304 Z" fill="url(#feather5)" opacity="0.6"/>
  <ellipse cx="256" cy="267" rx="75" ry="96" fill="url(#body5)"/>
  <ellipse cx="256" cy="283" rx="43" ry="53" fill="#ef4444" opacity="0.5"/>
  <circle cx="256" cy="176" r="53" fill="url(#body5)"/>
  <circle cx="275" cy="165" r="19" fill="#1a1a2e"/>
  <circle cx="277" cy="163" r="12" fill="#f5f5f5"/>
  <circle cx="280" cy="160" r="5.3" fill="#1a1a2e"/>
  <circle cx="282" cy="158" r="2.7" fill="#ffffff"/>
  <path d="M293 181 C309 176, 320 187, 315 203 C309 213, 293 208, 288 197 Z" fill="#1a1a2e"/>
  <path d="M294 184 C307 179, 315 187, 312 200 C307 208, 294 205, 291 195 Z" fill="#333"/>
  <path d="M213 352 C197 395, 181 416, 160 421" stroke="url(#feather5)" stroke-width="10.7" fill="none" stroke-linecap="round"/>
  <path d="M235 357 C224 400, 213 421, 197 432" stroke="url(#feather5)" stroke-width="9.3" fill="none" stroke-linecap="round"/>
  <path d="M256 357 C251 400, 245 421, 235 437" stroke="url(#feather5)" stroke-width="8" fill="none" stroke-linecap="round" opacity="0.7"/>
  <path d="M229 357 L219 384 M219 384 L208 395 M219 384 L224 397 M219 384 L232 395" stroke="#6b7280" stroke-width="5.3" fill="none" stroke-linecap="round"/>
  <path d="M283 357 L293 384 M293 384 L283 395 M293 384 L299 397 M293 384 L307 392" stroke="#6b7280" stroke-width="5.3" fill="none" stroke-linecap="round"/>
  <path d="M187 267 C208 235, 245 219, 288 224" stroke="#a855f7" stroke-width="4" fill="none" opacity="0.4" stroke-linecap="round"/>
  <path d="M181 293 C203 256, 240 240, 283 245" stroke="#a855f7" stroke-width="4" fill="none" opacity="0.3" stroke-linecap="round"/>
</svg>
