<svg xmlns="http://www.w3.org/2000/svg" width="192" height="192" viewBox="0 0 192 192">
  <defs>
    <linearGradient id="bg" x1="0" y1="0" x2="1" y2="1">
      <stop offset="0%" stop-color="#1a1a2e"/>
      <stop offset="100%" stop-color="#0f0f11"/>
    </linearGradient>
    <linearGradient id="feather" x1="0" y1="0" x2="1" y2="1">
      <stop offset="0%" stop-color="#a855f7"/>
      <stop offset="100%" stop-color="#7c3aed"/>
    </linearGradient>
    <linearGradient id="body" x1="0" y1="0" x2="0" y2="1">
      <stop offset="0%" stop-color="#ef4444"/>
      <stop offset="100%" stop-color="#dc2626"/>
    </linearGradient>
  </defs>
  <rect width="192" height="192" rx="42" fill="url(#bg)"/>
  <path d="M56 130 C56 80, 76 50, 106 40 C120 36, 136 42, 142 56 C148 70, 144 90, 132 104 C126 112, 116 118, 106 120 Z" fill="url(#feather)" opacity="0.3"/>
  <path d="M62 126 C62 84, 80 56, 106 46 C118 42, 132 47, 137 58 C142 70, 139 86, 128 98 C122 106, 113 112, 104 114 Z" fill="url(#feather)" opacity="0.6"/>
  <ellipse cx="96" cy="100" rx="28" ry="36" fill="url(#body)"/>
  <ellipse cx="96" cy="106" rx="16" ry="20" fill="#ef4444" opacity="0.5"/>
  <circle cx="96" cy="66" r="20" fill="url(#body)"/>
  <circle cx="103" cy="62" r="7" fill="#1a1a2e"/>
  <circle cx="104" cy="61" r="4.5" fill="#f5f5f5"/>
  <circle cx="105" cy="60" r="2" fill="#1a1a2e"/>
  <circle cx="106" cy="59" r="1" fill="#ffffff"/>
  <path d="M110 68 C116 66, 120 70, 118 76 C116 80, 110 78, 108 74 Z" fill="#1a1a2e"/>
  <path d="M110 69 C115 67, 118 70, 117 75 C115 78, 110 77, 109 73 Z" fill="#333"/>
  <path d="M80 132 C74 148, 68 156, 60 158" stroke="url(#feather)" stroke-width="4" fill="none" stroke-linecap="round"/>
  <path d="M88 134 C84 150, 80 158, 74 162" stroke="url(#feather)" stroke-width="3.5" fill="none" stroke-linecap="round"/>
  <path d="M96 134 C94 150, 92 158, 88 164" stroke="url(#feather)" stroke-width="3" fill="none" stroke-linecap="round" opacity="0.7"/>
  <path d="M86 134 L82 144 M82 144 L78 148 M82 144 L84 149 M82 144 L87 148" stroke="#6b7280" stroke-width="2" fill="none" stroke-linecap="round"/>
  <path d="M106 134 L110 144 M110 144 L106 148 M110 144 L112 149 M110 144 L115 147" stroke="#6b7280" stroke-width="2" fill="none" stroke-linecap="round"/>
  <path d="M70 100 C78 88, 92 82, 108 84" stroke="#a855f7" stroke-width="1.5" fill="none" opacity="0.4" stroke-linecap="round"/>
  <path d="M68 110 C76 96, 90 90, 106 92" stroke="#a855f7" stroke-width="1.5" fill="none" opacity="0.3" stroke-linecap="round"/>
</svg>
